<?xml version="1.0" encoding="UTF-8"?>
<svg id="_레이어_2" data-name="레이어 2" xmlns="http://www.w3.org/2000/svg" viewBox="0 0 455.46 856.79">
  <defs>
    <style>
      .cls-1 {
        fill: #da5a63;
      }
    </style>
  </defs>
  <g id="_레이어_1-2" data-name="레이어 1">
    <path class="cls-1" d="M435.65,8.44L50.31,307.87c-17.29,13.43-27.8,24.18-31.39,38.45-2.87,11.42,.95,22.19,13.1,35.64,22.36,24.76,71.54,73.53,76.27,82.94,5.91,11.76,14.9,28.5,13.69,45.83-.97,13.86-8.56,37.27-12.24,47.24-30.55,81.48-94.06,247.57-100.2,261.78-6.42,14.85-13.25,31.48-7.17,35.91,4.56,3.32,13.82-1.06,23.08-8.2,129.69-99.96,384.39-299.17,392.8-307.71,10.51-10.67,20.51-17.2,22.13-30.39,1-8.15-8.08-21.7-17.39-30.65-9.87-9.49-28.06-26.14-41.65-42.82-19.98-24.53-38.84-50.75-40.12-70.23-1.02-15.37,4.4-39.01,15.02-69.9,24.79-72.07,76.56-222,85.29-245.21,10.92-29.01,16.77-46.69,12.57-49.96-3.36-2.62-13.69,4.14-18.44,7.85Z"/>
  </g>
</svg>