<svg width="1100" height="1100" viewBox="0 0 1100 1100" fill="none" xmlns="http://www.w3.org/2000/svg">
<circle cx="550" cy="550" r="550" fill="#DA5A63"/>
<path d="M756.698 129.832L371.354 429.258C354.069 442.689 343.552 453.436 339.96 467.711C337.086 479.131 340.914 489.902 353.059 503.35C375.419 528.109 424.599 576.883 429.33 586.293C435.243 598.056 444.225 614.795 443.017 632.121C442.051 645.983 434.456 669.392 430.778 679.365C400.233 760.843 336.719 926.939 330.576 941.142C324.154 955.989 317.329 972.626 323.407 977.052C327.966 980.371 337.224 975.989 346.488 968.849C476.182 868.886 730.882 669.674 739.288 661.141C749.795 650.474 759.795 643.94 761.415 630.747C762.416 622.593 753.331 609.047 744.024 600.1C734.152 590.61 715.963 573.956 702.375 557.277C682.393 532.75 663.54 506.522 662.252 487.049C661.235 471.677 666.648 448.04 677.272 417.154C702.063 345.086 753.829 195.149 762.565 171.94C773.485 142.93 779.334 125.254 775.137 121.979C771.78 119.36 761.446 126.123 756.698 129.832Z" fill="white" stroke="#DA5A63" stroke-width="2"/>
</svg>
