<svg width="68" height="31" viewBox="0 0 68 31" fill="none" xmlns="http://www.w3.org/2000/svg">
<path d="M29.2344 10.625V22H27.0859V10.625H29.2344ZM33.8203 15.5391V17.2344H28.6719V15.5391H33.8203ZM34.4219 10.625V12.3203H28.6719V10.625H34.4219ZM40.5859 19.9922V13.5469H42.6641V22H40.7109L40.5859 19.9922ZM40.8516 18.2422L41.4922 18.2266C41.4922 18.7943 41.4297 19.3177 41.3047 19.7969C41.1797 20.276 40.9844 20.6927 40.7188 21.0469C40.4583 21.3958 40.1276 21.6693 39.7266 21.8672C39.3255 22.0599 38.8516 22.1562 38.3047 22.1562C37.888 22.1562 37.5078 22.099 37.1641 21.9844C36.8203 21.8646 36.5234 21.6797 36.2734 21.4297C36.0286 21.1745 35.8385 20.849 35.7031 20.4531C35.5677 20.0521 35.5 19.5703 35.5 19.0078V13.5469H37.5625V19.0234C37.5625 19.3047 37.5938 19.5391 37.6562 19.7266C37.724 19.9141 37.8151 20.0677 37.9297 20.1875C38.0495 20.3021 38.1875 20.3854 38.3438 20.4375C38.5052 20.4844 38.6771 20.5078 38.8594 20.5078C39.3594 20.5078 39.7526 20.4089 40.0391 20.2109C40.3307 20.0078 40.5391 19.737 40.6641 19.3984C40.7891 19.0547 40.8516 18.6693 40.8516 18.2422ZM46.5547 15.2734V22H44.4922V13.5469H46.4453L46.5547 15.2734ZM49.125 13.4922L49.0938 15.4141C48.9792 15.3932 48.849 15.3776 48.7031 15.3672C48.5625 15.3568 48.4297 15.3516 48.3047 15.3516C47.987 15.3516 47.7083 15.3958 47.4688 15.4844C47.2292 15.5677 47.0286 15.6901 46.8672 15.8516C46.7109 16.013 46.5911 16.2109 46.5078 16.4453C46.4245 16.6745 46.3776 16.9349 46.3672 17.2266L45.9219 17.1719C45.9219 16.6354 45.9766 16.138 46.0859 15.6797C46.1953 15.2214 46.3542 14.8203 46.5625 14.4766C46.7708 14.1328 47.0312 13.8672 47.3438 13.6797C47.6615 13.487 48.026 13.3906 48.4375 13.3906C48.5521 13.3906 48.6745 13.401 48.8047 13.4219C48.9401 13.4375 49.0469 13.4609 49.125 13.4922ZM49.6719 17.8594V17.6953C49.6719 17.0755 49.7604 16.5052 49.9375 15.9844C50.1146 15.4583 50.3724 15.0026 50.7109 14.6172C51.0495 14.2318 51.4635 13.9323 51.9531 13.7188C52.4427 13.5 53 13.3906 53.625 13.3906C54.2604 13.3906 54.8229 13.5 55.3125 13.7188C55.8073 13.9323 56.224 14.2318 56.5625 14.6172C56.901 15.0026 57.1589 15.4583 57.3359 15.9844C57.513 16.5052 57.6016 17.0755 57.6016 17.6953V17.8594C57.6016 18.474 57.513 19.0443 57.3359 19.5703C57.1589 20.0911 56.901 20.5469 56.5625 20.9375C56.224 21.3229 55.8099 21.6224 55.3203 21.8359C54.8307 22.0495 54.2708 22.1562 53.6406 22.1562C53.0156 22.1562 52.4557 22.0495 51.9609 21.8359C51.4661 21.6224 51.0495 21.3229 50.7109 20.9375C50.3724 20.5469 50.1146 20.0911 49.9375 19.5703C49.7604 19.0443 49.6719 18.474 49.6719 17.8594ZM51.7344 17.6953V17.8594C51.7344 18.2292 51.7708 18.5755 51.8438 18.8984C51.9167 19.2214 52.0286 19.5052 52.1797 19.75C52.3307 19.9948 52.526 20.1875 52.7656 20.3281C53.0104 20.4635 53.3021 20.5312 53.6406 20.5312C53.974 20.5312 54.2604 20.4635 54.5 20.3281C54.7396 20.1875 54.9349 19.9948 55.0859 19.75C55.2422 19.5052 55.3568 19.2214 55.4297 18.8984C55.5026 18.5755 55.5391 18.2292 55.5391 17.8594V17.6953C55.5391 17.3307 55.5026 16.9896 55.4297 16.6719C55.3568 16.349 55.2422 16.0651 55.0859 15.8203C54.9349 15.5703 54.737 15.375 54.4922 15.2344C54.2526 15.0885 53.9635 15.0156 53.625 15.0156C53.2917 15.0156 53.0052 15.0885 52.7656 15.2344C52.526 15.375 52.3307 15.5703 52.1797 15.8203C52.0286 16.0651 51.9167 16.349 51.8438 16.6719C51.7708 16.9896 51.7344 17.3307 51.7344 17.6953Z" fill="#EDEDED"/>
<path d="M14.3871 10.1952C11.9677 12.55 10 14.679 10 14.9693C10 15.2597 10.4194 15.7113 10.9355 16.0339C11.4516 16.3242 12.129 16.9048 12.4194 17.3564C12.9032 18.0984 12.871 18.3887 12.0968 21.7113C11.6774 23.679 11.1935 25.5177 11.0645 25.8081C10.9677 26.1629 11 26.3242 11.1935 26.2597C11.9355 25.9693 20 17.9048 20 17.4532C20 17.1629 19.4516 16.5823 18.7419 16.1629C18.0323 15.7113 17.4516 15.0339 17.3548 14.6145C17.2903 14.1952 17.6129 12.0984 18.0968 9.96935C18.5806 7.87257 18.9355 6.06612 18.871 6.00161C18.8065 5.93709 16.7742 7.84032 14.3871 10.1952Z" fill="#E95A6C"/>
</svg>
